<?xml version="1.0" encoding="UTF-8" standalone="no" ?>
<!DOCTYPE svg PUBLIC "-//W3C//DTD SVG 1.1//EN" "http://www.w3.org/Graphics/SVG/1.1/DTD/svg11.dtd">
<svg xmlns="http://www.w3.org/2000/svg" xmlns:xlink="http://www.w3.org/1999/xlink" version="1.1" width="500" height="500" viewBox="0 0 500 500" xml:space="preserve">
<desc>Created with Fabric.js 3.6.3</desc>
<defs>
</defs>
<g transform="matrix(1 0 0 1 250.75 304.68699999999995)" style=""  ><path fill="#284907" opacity="1" d="M-191.28-4.19L-191.28-4.19Q-188.84-4.19-187.77-5.79Q-186.71-7.39-186.71-10.37L-186.71-10.37L-186.71-21.89Q-186.71-24.56-187.77-25.93Q-188.84-27.30-191.28-27.30L-191.28-27.30Q-193.73-27.30-194.79-25.93Q-195.86-24.56-195.86-21.89L-195.86-21.89L-195.86-14.18L-198.91-14.18L-198.91-21.89Q-198.91-26.01-197.12-28.11Q-195.33-30.20-191.28-30.20L-191.28-30.20Q-187.24-30.20-185.45-28.11Q-183.65-26.01-183.65-21.89L-183.65-21.89L-183.65-10.37Q-183.65-4.41-187.47-2.74L-187.47-2.74Q-183.65-1.06-183.65 4.89L-183.65 4.89L-183.65 16.34Q-183.65 20.46-185.45 22.60Q-187.24 24.73-191.28 24.73L-191.28 24.73Q-195.33 24.73-197.12 22.60Q-198.91 20.46-198.91 16.34L-198.91 16.34L-198.91 8.71L-195.86 8.71L-195.86 16.34Q-195.86 19.01-194.79 20.42Q-193.73 21.83-191.28 21.83L-191.28 21.83Q-188.84 21.83-187.77 20.42Q-186.71 19.01-186.71 16.34L-186.71 16.34L-186.71 4.89Q-186.71 1.92-187.77 0.32Q-188.84-1.29-191.28-1.29L-191.28-1.29L-195.10-1.29L-195.10-4.19L-191.28-4.19Z"/><path fill="#284907" opacity="1" d="M-150.16-29.44L-150.16-26.47L-159.70-26.47L-159.70-4.19L-151.68-4.19L-151.68-1.29L-159.70-1.29L-159.70 20.99L-150.16 20.99L-150.16 23.97L-162.75 23.97L-162.75-29.44L-150.16-29.44Z"/><path fill="#284907" opacity="1" d="M-132.91 23.97L-132.91 21.07Q-130.47 21.07-129.48 19.01Q-128.49 16.95-128.34 13.29L-128.34 13.29L-126.81-29.44L-113.84-29.44L-113.84 23.97L-116.89 23.97L-116.89-26.47L-123.91-26.47L-125.28 13.29Q-125.44 18.40-127.15 21.18Q-128.87 23.97-132.91 23.97L-132.91 23.97Z"/><path fill="#284907" opacity="1" d="M-80.19-29.44L-80.19-26.47L-89.73-26.47L-89.73-4.19L-81.72-4.19L-81.72-1.29L-89.73-1.29L-89.73 20.99L-80.19 20.99L-80.19 23.97L-92.78 23.97L-92.78-29.44L-80.19-29.44Z"/><path fill="#284907" opacity="1" d="M-48.07 23.97L-48.07-1.29L-57.22-1.29L-57.22 23.97L-60.28 23.97L-60.28-29.44L-57.22-29.44L-57.22-4.19L-48.07-4.19L-48.07-29.44L-45.02-29.44L-45.02 23.97L-48.07 23.97Z"/><path fill="#284907" opacity="1" d="M-8.85 8.71L-8.85 16.34Q-8.85 20.46-10.64 22.60Q-12.44 24.73-16.48 24.73L-16.48 24.73Q-20.52 24.73-22.32 22.60Q-24.11 20.46-24.11 16.34L-24.11 16.34L-24.11-21.89Q-24.11-26.01-22.32-28.11Q-20.52-30.20-16.48-30.20L-16.48-30.20Q-12.44-30.20-10.64-28.11Q-8.85-26.01-8.85-21.89L-8.85-21.89L-8.85-14.18L-11.90-14.18L-11.90-21.89Q-11.90-24.56-12.97-25.93Q-14.04-27.30-16.48-27.30L-16.48-27.30Q-18.92-27.30-19.99-25.93Q-21.06-24.56-21.06-21.89L-21.06-21.89L-21.06 16.34Q-21.06 19.01-19.99 20.42Q-18.92 21.83-16.48 21.83L-16.48 21.83Q-14.04 21.83-12.97 20.42Q-11.90 19.01-11.90 16.34L-11.90 16.34L-11.90 8.71L-8.85 8.71Z"/><path fill="#284907" opacity="1" d="M8.70-26.47L8.70-29.44L25.48-29.44L25.48-26.47L18.62-26.47L18.62 23.97L15.57 23.97L15.57-26.47L8.70-26.47Z"/><path fill="#284907" opacity="1" d="M44.41 23.97L44.41-29.44L52.04-29.44Q56.08-29.44 57.87-27.11Q59.67-24.79 59.67-20.36L59.67-20.36L59.67-4.49Q59.67-0.07 57.87 2.30Q56.08 4.66 52.04 4.66L52.04 4.66L47.46 4.66L47.46 23.97L44.41 23.97ZM52.04-26.54L47.46-26.54L47.46 1.77L52.04 1.77Q54.48 1.77 55.55 0.13Q56.61-1.52 56.61-4.49L56.61-4.49L56.61-20.36Q56.61-23.34 55.55-24.94Q54.48-26.54 52.04-26.54L52.04-26.54Z"/><path fill="#284907" opacity="1" d="M79.73 16.34L79.73-21.89Q79.73-26.01 81.53-28.11Q83.32-30.20 87.36-30.20L87.36-30.20Q91.41-30.20 93.20-28.11Q94.99-26.01 94.99-21.89L94.99-21.89L94.99 16.34Q94.99 20.46 93.20 22.60Q91.41 24.73 87.36 24.73L87.36 24.73Q83.32 24.73 81.53 22.60Q79.73 20.46 79.73 16.34L79.73 16.34ZM82.79-21.89L82.79 16.34Q82.79 19.01 83.85 20.42Q84.92 21.83 87.36 21.83L87.36 21.83Q89.81 21.83 90.87 20.42Q91.94 19.01 91.94 16.34L91.94 16.34L91.94-21.89Q91.94-24.56 90.87-25.93Q89.81-27.30 87.36-27.30L87.36-27.30Q84.92-27.30 83.85-25.93Q82.79-24.56 82.79-21.89L82.79-21.89Z"/><path fill="#284907" opacity="1" d="M118.95-29.44L118.95 1.08L118.72 11.07L128.11-27.08L128.34-29.44L131.16-29.44L131.16 23.97L128.11 23.97L128.11-6.55L128.34-16.55L118.95 21.60L118.72 23.97L115.90 23.97L115.90-29.44L118.95-29.44ZM126.58-38.60L129.25-38.60Q129.25-35.62 127.88-34.06Q126.51-32.49 123.53-32.49L123.53-32.49Q120.48-32.49 119.14-34.06Q117.81-35.62 117.81-38.60L117.81-38.60L120.48-38.60Q120.48-35.01 123.53-35.01L123.53-35.01Q126.58-35.01 126.58-38.60L126.58-38.60Z"/><path fill="#284907" opacity="1" d=""/><path fill="#284907" opacity="1" d="M186.78-12.66L189.68-12.66L189.68-4.19L198.15-4.19L198.15-1.29L189.68-1.29L189.68 7.18L186.78 7.18L186.78-1.29L178.31-1.29L178.31-4.19L186.78-4.19L186.78-12.66Z"/></g><g transform="matrix(1 0 0 1 249.99999999999997 353.96595979990735)" style=""  ><path fill="#284907" opacity="1" d="M-136.53-4.27L-134.82-5.83L-130.46-5.83L-128.75-4.27L-128.75 3.19L-130.46 4.74L-134.82 4.74L-136.53 3.19L-136.53-4.27ZM-129.73 2.78L-129.73-3.86L-130.82-4.84L-134.46-4.84L-135.55-3.86L-135.55 2.78L-134.46 3.76L-130.82 3.76L-129.73 2.78Z"/><path fill="#284907" opacity="1" d="M-118.41-2.13L-118.41-0.04L-119.07 0.64L-118.33 1.38L-118.33 3.51L-119.57 4.74L-123.13 4.74L-124.67 4.26L-124.37 3.34L-123.01 3.76L-119.98 3.76L-119.31 3.10L-119.31 1.80L-119.99 1.12L-123.00 1.12L-123.00 0.14L-119.95 0.14L-119.39-0.41L-119.39-1.72L-119.99-2.32L-122.94-2.32Q-123.09-2.28-123.58-2.11Q-124.07-1.95-124.27-1.89L-124.27-1.89L-124.57-2.79L-123.04-3.30L-119.58-3.30L-118.41-2.13Z"/><path fill="#284907" opacity="1" d="M-112.00 3.76L-108.88 3.76L-107.55 3.34L-107.25 4.26L-108.79 4.74L-112.41 4.74L-113.65 3.51L-113.65-2.07L-112.41-3.30L-108.52-3.30L-107.28-2.07L-107.28 0.15L-108.52 1.38L-112.67 1.38L-112.67 3.10L-112.00 3.76ZM-108.92-2.32L-112.00-2.32L-112.67-1.66L-112.67 0.39L-108.92 0.39L-108.26-0.27L-108.26-1.66L-108.92-2.32Z"/><path fill="#284907" opacity="1" d="M-101.46-3.30L-96.33-3.30L-96.33 4.74L-97.31 4.74L-97.31-2.32L-100.57-2.32L-101.18 3.48L-102.17 4.49L-103.49 4.89L-103.77 3.94L-102.79 3.64L-102.13 2.96L-101.46-3.30Z"/><path fill="#284907" opacity="1" d="M-89.85 3.76L-86.73 3.76L-85.40 3.34L-85.10 4.26L-86.64 4.74L-90.26 4.74L-91.50 3.51L-91.50-2.07L-90.26-3.30L-86.36-3.30L-85.13-2.07L-85.13 0.15L-86.36 1.38L-90.52 1.38L-90.52 3.10L-89.85 3.76ZM-86.77-2.32L-89.85-2.32L-90.52-1.66L-90.52 0.39L-86.77 0.39L-86.11-0.27L-86.11-1.66L-86.77-2.32Z"/><path fill="#284907" opacity="1" d="M-79.30 4.74L-80.28 4.74L-80.28-1.79L-80.72-3.12L-79.80-3.43L-79.30-1.90L-79.30 0.15L-74.89 0.15L-74.89-3.30L-73.91-3.30L-73.91 4.74L-74.89 4.74L-74.89 1.13L-79.30 1.13L-79.30 4.74Z"/><path fill="#284907" opacity="1" d="M-67.43 3.76L-64.30 3.76L-62.97 3.34L-62.67 4.26L-64.21 4.74L-67.84 4.74L-69.07 3.51L-69.07-2.07L-67.84-3.30L-63.94-3.30L-62.70-2.07L-62.70 0.15L-63.94 1.38L-68.09 1.38L-68.09 3.10L-67.43 3.76ZM-64.35-2.32L-67.43-2.32L-68.09-1.66L-68.09 0.39L-64.35 0.39L-63.68-0.27L-63.68-1.66L-64.35-2.32Z"/><path fill="#284907" opacity="1" d="M-56.87 4.74L-57.86 4.74L-57.86-1.79L-58.29-3.12L-57.37-3.43L-56.87-1.90L-56.87 0.15L-52.46 0.15L-52.46-3.30L-51.48-3.30L-51.48 4.74L-52.46 4.74L-52.46 1.13L-56.87 1.13L-56.87 4.74Z"/><path fill="#284907" opacity="1" d="M-40.99-1.69L-45.29 4.74L-46.36 4.74L-46.36-1.79L-46.80-3.12L-45.88-3.43L-45.38-1.90L-45.38 3.13L-41.08-3.30L-40.01-3.30L-40.01 4.74L-40.99 4.74L-40.99-1.69Z"/><path fill="#284907" opacity="1" d="M-33.53 3.76L-30.40 3.76L-29.08 3.34L-28.77 4.26L-30.31 4.74L-33.94 4.74L-35.18 3.51L-35.18-2.07L-33.94-3.30L-30.04-3.30L-28.80-2.07L-28.80 0.15L-30.04 1.38L-34.19 1.38L-34.19 3.10L-33.53 3.76ZM-30.45-2.32L-33.53-2.32L-34.19-1.66L-34.19 0.39L-30.45 0.39L-29.78-0.27L-29.78-1.66L-30.45-2.32Z"/><path fill="#284907" opacity="1" d=""/><path fill="#284907" opacity="1" d="M-11.03-1.69L-15.33 4.74L-16.41 4.74L-16.41-1.79L-16.84-3.12L-15.92-3.43L-15.42-1.90L-15.42 3.13L-11.12-3.30L-10.05-3.30L-10.05 4.74L-11.03 4.74L-11.03-1.69Z"/><path fill="#284907" opacity="1" d=""/><path fill="#284907" opacity="1" d="M3.96 3.76L7.10 3.76L8.43 3.34L8.74 4.26L7.20 4.74L3.57 4.74L2.33 3.49L2.33-2.05L3.57-3.30L7.47-3.30L8.71-2.05L8.71-0.39L7.72-0.39L7.72-1.69L7.07-2.32L3.96-2.32L3.31-1.69L3.31 3.13L3.96 3.76Z"/><path fill="#284907" opacity="1" d="M12.21-2.32L12.21-3.30L18.57-3.30L18.57-2.32L15.88-2.32L15.88 4.74L14.90 4.74L14.90-2.32L12.21-2.32Z"/><path fill="#284907" opacity="1" d="M23.74-1.31L23.74 2.86L24.65 3.76L27.50 3.76L28.15 3.11L28.15-1.67L27.50-2.32L24.76-2.32L23.74-1.31ZM24.23 4.74L23.74 4.26L23.76 7.28L22.76 7.28L22.76-1.49L22.34-3.20L23.28-3.43L23.52-2.46L24.36-3.30L27.91-3.30L29.14-2.08L29.14 3.52L27.91 4.74L24.23 4.74Z"/><path fill="#284907" opacity="1" d="M40.42-2.05L40.42 3.49L39.18 4.74L35.21 4.74L33.97 3.49L33.97-2.05L35.21-3.30L39.18-3.30L40.42-2.05ZM34.95 3.08L35.61 3.76L38.77 3.76L39.43 3.08L39.43-1.64L38.77-2.32L35.61-2.32L34.95-1.64L34.95 3.08Z"/><path fill="#284907" opacity="1" d="M50.91-1.69L46.61 4.74L45.53 4.74L45.53-1.79L45.10-3.12L46.02-3.43L46.52-1.90L46.52 3.13L50.82-3.30L51.89-3.30L51.89 4.74L50.91 4.74L50.91-1.69Z"/><path fill="#284907" opacity="1" d="M55.82-2.32L55.82-3.30L62.17-3.30L62.17-2.32L59.49-2.32L59.49 4.74L58.50 4.74L58.50-2.32L55.82-2.32Z"/><path fill="#284907" opacity="1" d="M67.60 3.76L70.72 3.76L72.05 3.34L72.35 4.26L70.81 4.74L67.19 4.74L65.95 3.51L65.95-2.07L67.19-3.30L71.08-3.30L72.32-2.07L72.32 0.15L71.08 1.38L66.93 1.38L66.93 3.10L67.60 3.76ZM70.68-2.32L67.60-2.32L66.93-1.66L66.93 0.39L70.68 0.39L71.34-0.27L71.34-1.66L70.68-2.32Z"/><path fill="#284907" opacity="1" d="M78.13-3.30L83.27-3.30L83.27 4.74L82.29 4.74L82.29-2.32L79.03-2.32L78.42 3.48L77.43 4.49L76.11 4.89L75.82 3.94L76.81 3.64L77.47 2.96L78.13-3.30Z"/><path fill="#284907" opacity="1" d="M93.25 4.74L88.10 4.74L88.10-3.30L89.08-3.30L89.08-0.21L93.25-0.21L94.49 1.03L94.49 3.51L93.25 4.74ZM93.51 3.10L93.51 1.44L92.84 0.77L89.08 0.77L89.08 3.76L92.84 3.76L93.51 3.10Z"/><path fill="#284907" opacity="1" d="M100.50 3.76L103.64 3.76L104.97 3.34L105.27 4.26L103.73 4.74L100.11 4.74L98.87 3.49L98.87-2.05L100.11-3.30L104.00-3.30L105.24-2.05L105.24-0.39L104.26-0.39L104.26-1.69L103.61-2.32L100.50-2.32L99.85-1.69L99.85 3.13L100.50 3.76Z"/><path fill="#284907" opacity="1" d="M108.74-2.32L108.74-3.30L115.10-3.30L115.10-2.32L112.41-2.32L112.41 4.74L111.43 4.74L111.43-2.32L108.74-2.32Z"/><path fill="#284907" opacity="1" d="M124.16-3.30L125.14-2.32L125.14 0.08L124.66 0.56L125.40 1.30L125.40 3.52L124.17 4.74L119.03 4.74L119.03-3.30L124.16-3.30ZM124.16-0.35L124.16-1.92L123.75-2.32L120.01-2.32L120.01 0.06L123.75 0.06L124.16-0.35ZM124.42 3.10L124.42 1.72L123.72 1.04L120.01 1.04L120.01 3.76L123.75 3.76L124.42 3.10Z"/><path fill="#284907" opacity="1" d="M136.53-2.05L136.53 3.49L135.29 4.74L131.32 4.74L130.08 3.49L130.08-2.05L131.32-3.30L135.29-3.30L136.53-2.05ZM131.06 3.08L131.72 3.76L134.88 3.76L135.55 3.08L135.55-1.64L134.88-2.32L131.72-2.32L131.06-1.64L131.06 3.08Z"/></g><g transform="matrix(1.11 0 0 1.11 251.38154899999998 189.481549)"  >
<circle style="stroke: none; stroke-width: 1; stroke-dasharray: none; stroke-linecap: butt; stroke-dashoffset: 0; stroke-linejoin: miter; stroke-miterlimit: 4; fill: rgb(40,73,7); fill-rule: evenodd; opacity: 1;"  cx="0" cy="0" r="47.0059" />
</g>
<g transform="matrix(1 0 0 1 165.93500000000006 225.479)" style=""  ><path fill="#284907" opacity="1" d="M-8.03 3.96L-8.03 2.19L-13.75 2.19L-13.75 0.44L-8.47 0.44L-8.47-1.32L-13.75-1.32L-13.75-3.10L-8.03-3.10L-8.03-4.86L-15.51-4.86L-15.51 3.96Z"/><path fill="#284907" opacity="1" d="M2.67 3.96L3.54 3.09L3.54-0.45L2.67-1.33L-2.61-1.33L-2.61-3.10L1.78-3.10L1.78-2.22L3.54-2.22L3.54-3.97L2.67-4.86L-3.51-4.86L-4.38-3.97L-4.38-0.19L-3.51 0.44L1.78 0.44L1.78 2.19L-2.61 2.19L-2.61 1.32L-4.38 1.32L-4.38 3.09L-3.51 3.96Z"/><path fill="#284907" opacity="1" d="M11.79 3.96L11.79-3.10L14.85-3.10L14.85-4.86L6.94-4.86L6.94-3.10L10.03-3.10L10.03 3.96Z"/><path fill="#284907" opacity="1" d="M16.24 3.96L18.00 3.96L18.00 2.19L16.24 2.19Z"/></g><g transform="matrix(1 0 0 1 343.3309995193482 225.479)" style=""  ><path fill="#284907" opacity="1" d="M-20.49-3.10L-20.49-2.20L-26.65 2.19L-26.65 3.96L-18.74 3.96L-18.74 2.19L-23.65 2.19L-18.74-1.32L-18.74-3.97L-19.61-4.86L-25.78-4.86L-26.65-3.97L-26.65-2.22L-24.88-2.22L-24.88-3.10Z"/><path fill="#284907" opacity="1" d="M-13.44 1.05L-13.44-3.10L-10.18-3.10ZM-9.05 2.19L-12.25 2.19L-9.05-1.91ZM-8.16 3.96L-7.30 3.09L-7.30-3.97L-8.16-4.86L-14.34-4.86L-15.21-3.97L-15.21 3.09L-14.34 3.96Z"/><path fill="#284907" opacity="1" d="M-0.38 3.96L-0.38-4.86L-3.89-4.86L-3.89-3.10L-2.13-3.10L-2.13 3.96Z"/><path fill="#284907" opacity="1" d="M5.17 2.19L5.17 0.44L9.56 0.44L9.56 2.19ZM5.17-1.32L5.17-3.10L9.56-3.10L9.56-1.32ZM10.45 3.96L11.31 3.09L11.31 0.44L10.45-0.44L11.31-1.32L11.31-3.97L10.45-4.86L4.27-4.86L3.40-3.97L3.40-1.32L4.27-0.44L3.40 0.44L3.40 3.09L4.27 3.96Z"/></g><g transform="matrix(0.7789166666450301 0 0 0.7789166666450301 250.58587000000009 189.24125)"  >
<path style="stroke: none; stroke-width: 0; stroke-dasharray: none; stroke-linecap: butt; stroke-dashoffset: 0; stroke-linejoin: miter; stroke-miterlimit: 4; fill: rgb(242,252,231); fill-rule: evenodd; opacity: 1;"  transform=" translate(-49.64357635, -49.99999999875)" d="M 78.6753551 73.6535259 L 20.6117977 73.6535259 C 18.0640357 73.6535259 16 75.7185864 16 78.2653236 C 16 80.8120607 18.0640357 82.8771212 20.6117977 82.8771212 L 45.0317787 82.8771212 L 45.0317787 90.3882023 C 45.0317787 92.9349395 47.0968392 95 49.6435764 95 C 52.1903135 95 54.255374 92.9349395 54.255374 90.3882023 L 54.255374 82.8771212 L 78.6753551 82.8771212 C 81.2220922 82.8771212 83.2871527 80.8120607 83.2871527 78.2653236 C 83.2871527 75.7185864 81.2220922 73.6535259 78.6753551 73.6535259 M 23.7754909 68.2659214 C 23.9538137 68.2659214 24.1352111 68.2546481 24.3186581 68.2321015 L 49.6435764 64.9802718 L 74.9695194 68.2321015 C 77.2959151 68.5211075 79.4040191 66.8916057 79.7012238 64.5775081 C 79.9984286 62.2613608 78.3617528 60.1419836 76.0466304 59.8447788 L 50.1816194 56.5242845 C 49.8239489 56.4781666 49.4632038 56.4781666 49.1045085 56.5242845 L 23.2415472 59.8447788 C 20.9253999 60.1419836 19.289749 62.2613608 19.5869537 64.5775081 C 19.8605871 66.7102083 21.679685 68.2659214 23.7754909 68.2659214 M 28.0265435 53.4989453 L 49.6435764 47.1746334 L 71.2606093 53.4989453 C 71.6203295 53.605529 71.9841491 53.6547215 72.3407948 53.6547215 C 74.0030916 53.6547215 75.5362581 52.5673621 76.0271584 50.8896926 C 76.6236175 48.8533278 75.4552955 46.7185779 73.4179057 46.1231435 L 50.722737 39.4821549 C 50.0176444 39.2761613 49.2695083 39.2761613 48.5644157 39.4821549 L 25.869247 46.1231435 C 23.8308324 46.7185779 22.6635352 48.8533278 23.2599944 50.8896926 C 23.8554287 52.9270824 25.9912034 54.0995038 28.0265435 53.4989453 M 31.6883108 38.6653543 L 49.6435764 29.5052993 L 67.5988419 38.6653543 C 68.1030651 38.9215653 68.6400834 39.0435217 69.1689028 39.0435217 C 70.4274112 39.0435217 71.6418512 38.3548266 72.2526582 37.156784 C 73.120701 35.4545183 72.4453288 33.3710106 70.7440879 32.5029678 L 51.2156869 22.54046 C 50.2267126 22.0382865 49.0604402 22.0382865 48.0714658 22.54046 L 28.5440896 32.5029678 C 26.8428487 33.3710106 26.1674766 35.4545183 27.0344945 37.156784 C 27.9035622 38.858025 29.9870699 39.5333971 31.6883108 38.6653543 M 35.2219727 23.7436268 L 49.6435764 12.0347849 L 64.0651801 23.7436268 C 64.6349933 24.2058314 65.3206139 24.431297 66.0011102 24.431297 C 66.895799 24.431297 67.782289 24.0428812 68.3900214 23.2937203 C 69.4599585 21.975771 69.2590891 20.0398408 67.940115 18.9699038 L 51.5815562 5.68792648 C 50.4521782 4.77069117 48.8349745 4.77069117 47.7055965 5.68792648 L 31.3460129 18.9699038 C 30.0280636 20.0398408 29.8271942 21.975771 30.8971313 23.2937203 C 31.9660435 24.6106447 33.9019737 24.812539 35.2219727 23.7436268" stroke-linecap="round" />
</g>
</svg>